<svg xmlns="http://www.w3.org/2000/svg" width="933" height="936" viewBox="0 0 933 936">
  <defs>
    <style>
      .cls-1 {
        fill: #9e9e9e;
      }

      .cls-1, .cls-2, .cls-3, .cls-4, .cls-5, .cls-7, .cls-8 {
        stroke: #000;
      }

      .cls-1, .cls-2, .cls-3, .cls-4, .cls-5, .cls-6, .cls-7, .cls-8 {
        stroke-linecap: round;
        fill-rule: evenodd;
      }

      .cls-1, .cls-2, .cls-6, .cls-7, .cls-8 {
        stroke-width: 15px;
      }

      .cls-3, .cls-4, .cls-8 {
        fill: none;
      }

      .cls-3 {
        stroke-width: 30px;
      }

      .cls-4, .cls-5 {
        stroke-width: 20px;
      }

      .cls-6 {
        fill: #253368;
        stroke: #253368;
      }

      .cls-7 {
        fill: #585756;
      }
    </style>
  </defs>
  <path id="楕円形_1" data-name="楕円形 1" class="cls-1" d="M466.635,8C719.932,8,925.27,213.86,925.27,467.8S719.932,927.6,466.635,927.6,8,721.741,8,467.8,213.338,8,466.635,8Z"/>
  <path id="楕円形_1-2" data-name="楕円形 1" class="cls-1" d="M466.5,71C683.824,71,860,247.624,860,465.5S683.824,860,466.5,860,73,683.376,73,465.5,249.176,71,466.5,71Z"/>
  <path id="シェイプ_36" data-name="シェイプ 36" class="cls-2" d="M199.85,463.967c-3.931-1.01-9.131,5.874-12.551,11.248-5.51,8.659-8.814,19.713-10.285,32.478-0.409,3.552-.951,9.587-5.413,14.615-4.134,4.659-8.442,5.4-14.074,8.12-7.264,3.511-14.987,9.691-19.486,18.4a40.583,40.583,0,0,0-4.331,20.028c1.834,5.436,4.293,9.026,7.578,9.743,4.083,0.89,8.368-3.5,9.2-2.706,0.921,0.881-5.09,9.331-7.036,13.532-3.367,7.267-6.855,18.551-2.166,25.982,3.737,5.92,9.678,4.6,12.992,10.285,5.239,8.989-5.447,19.782-1.624,30.854,2.956,8.562,12,9.407,18.4,17.321,5.313,6.568,6.457,11.623,13.532,16.239,4.622,3.015,10.161,5.275,14.074,3.248,5.168-2.677,5.3-11.976,5.954-11.909,0.506,0.052.043,6.237,1.083,10.826a30.008,30.008,0,0,0,19.486,21.111c5.846,1.92,16.764,3.248,22.194-2.707,5.387-5.908,2.986-16.755,3.247-16.78s0.4,10.712,5.955,19.487c4.443,7.017,13.789,15.116,25.982,15.156a26.64,26.64,0,0,0,9.2-1.624c9.286-3.38,17.149-12.251,18.4-21.652,1.858-13.917-14.769-25.441-19.487-37.89-6.7-17.68,1.688-43.168-8.119-48.717-3.863-2.186-15.5,1-16.78,1.083-8.463.526-16.435-.852-20.028-2.166-7.747-2.832-16.609-8.716-21.652-18.4-2.909-5.588-5.707-14.5-3.789-23.817,0.519-2.523,4.913-10.52,3.789-16.78-1.055-5.875-5.082-8.751-9.2-13.532a48.908,48.908,0,0,1-9.2-15.7c-4.365-12.694-.509-22.02,0-37.349C205.917,485.545,206,465.545,199.85,463.967Z"/>
  <path id="シェイプ_37" data-name="シェイプ 37" class="cls-2" d="M706.943,427.04c0.965-.711,11.016,13.553,21.652,23.817,18.364,17.721,34.7,25.08,34.1,38.432-0.233,5.182-3,11.5-7.037,12.45-2.675.629-5.341-1.722-5.954-1.083-1.047,1.092,4.331,9.833,14.073,18.946,5.974,5.588,10.4,8.5,15.157,15.156,3.94,5.519,7.79,13.787,6.5,22.193a58.136,58.136,0,0,1-3.247,9.2c-2.572,6.19-5.153,11.714-2.707,16.239a17.422,17.422,0,0,0,2.165,2.707c2.4,3.063,3.275,7.391,2.707,12.991,0.928,7.105,2.052,14.462,3.248,20.569,0.515,2.634,2.172,11.1-1.083,12.991-2.053,1.191-5.054-1.241-6.5,0-2.325,2,3.184,11.27,1.624,18.945a14.806,14.806,0,0,1-1.624,4.331c-2.105,3.779-6.2,7.419-8.66,6.5-2.729-1.023-2.708-7.6-3.248-7.578-0.967.039,1.232,21.033-8.119,26.524-3.88,2.278-9,.052-11.909,3.248-3.634,3.988.682,11.725-2.707,14.615s-10.209-2.717-15.156,0c-5.3,2.909-2.952,11.186-8.119,14.615-6.3,4.177-14.991-3.755-21.652.541-4.422,2.852-2.738,7.684-7.578,10.826-4.293,2.786-8.212.485-13.533,2.706-3.071,1.282-3.946,3.094-7.037,4.331-7.731,3.093-18.582.7-22.193-5.413-1.942-3.289-.332-5.917-2.706-9.2-2.6-3.6-8.088-4.156-10.826-5.955-3.577-2.35-6.276-6.107-8.12-11.367a336.729,336.729,0,0,0,16.037-42.266c2.52-8.276,5.659-17.768,6.157-22.148,1.069-9.411.218-18.045,3.247-18.946,1.171-.348,2.209.672,3.789,1.624,1.448,0.873,6.266,1.989,11.368,2.166a40.925,40.925,0,0,0,24.358-7.579,39.18,39.18,0,0,0,13.532-15.7,37.28,37.28,0,0,0,3.248-12.991c0.706-10.244-5.455-18.6-2.165-28.148,1.511-4.383,4.523-6.586,7.578-10.826,1.883-2.612,4.954-8.816,7.578-14.073,2.348-4.7,4.367-8.724,4.872-14.615a32.414,32.414,0,0,0-.541-9.2,15.787,15.787,0,0,0-2.166-6.5c-1.566-2.557-5.421-4.7-5.412-7.037,0.013-3.749,8.526-5.216,11.367-9.2C741.739,469.235,706.1,427.661,706.943,427.04Z"/>
  <path id="シェイプ_39" data-name="シェイプ 39" class="cls-2" d="M214.364,440.572c33.918-28.433,2.49-129.439,14.615-186.747,8.087-38.227,24.161-67.943,44.386-89.855,18.371-19.9,43.579-36.955,75.781-47.634,36.849-12.22,70.685-7.228,82.277-3.248,6.344,2.178,11.215,5.074,15.157,9.2,11.339,11.875,10.5,29.2,10.284,35.726-1.714,52.02,13.029,118.813-22.193,139.654-12.535,7.418-32.006,1.818-58.46,1.083-29.49-.82-53.475,2.64-68.744,9.2-23.73,10.2-41.868,26.046-53.048,44.927-9.382,15.847-13.4,30.453-14.073,43.3-1.038,19.687,8.1,30.305,6.5,51.423a78.284,78.284,0,0,1-9.2,30.854,29.393,29.393,0,0,0-8.66,1.083,40.482,40.482,0,0,0-12.992,7.578c-4.68,4-8.179,8.818-9.2,11.092-2.108,4.713-2.56,10.037-2.711,10.018-0.2-.023,1.888-8.736-2.165-16.78-0.967-1.917-2.312-3.35-3.248-4.871-5.373-8.733-4.542-20.656-1.083-28.689C201.668,448.408,209.132,444.958,214.364,440.572Z"/>
  <path id="シェイプ_39-2" data-name="シェイプ 39" class="cls-2" d="M718.632,440.572c-33.918-28.433-2.491-129.439-14.615-186.747-8.087-38.227-24.162-67.943-44.386-89.855-18.371-19.9-43.579-36.955-75.782-47.634-36.848-12.22-70.685-7.228-82.277-3.248-6.343,2.178-11.214,5.074-15.156,9.2-11.339,11.875-10.5,29.2-10.285,35.726,1.714,52.02-13.028,118.813,22.193,139.654,12.536,7.418,32.006,1.818,58.46,1.083,29.49-.82,53.475,2.64,68.745,9.2,23.729,10.2,41.868,26.046,53.047,44.927,9.382,15.847,13.4,30.453,14.074,43.3,0.934,17.721-12.563,33.654-6.5,51.423,3.261,9.552,9.808,15.383,7.257,23.276-1.153,3.568-5.8,7.25-4.872,9.743,1.132,3.027,11.667,2.6,16.781,4.331,2.6,0.881,7.81,4.14,12.449,7.037a26.032,26.032,0,0,1,5.413,4.33,28.762,28.762,0,0,1,3.248,4.33c1.442,2.3,2.038,3.894,3.789,4.872,2.042,1.14,4.654,1.026,7.578,0a95.8,95.8,0,0,1-1.3-16.239c0.086-13.225,3.663-21.778-1.083-31.395C730.916,448.781,723.7,444.816,718.632,440.572Z"/>
  <path id="輪郭_顎_" data-name="輪郭(顎)" class="cls-3" d="M307.032,692.9a165.708,165.708,0,0,0,319.662,0"/>
  <path id="シェイプ_33" data-name="シェイプ 33" class="cls-3" d="M310.6,704.987l-55.212-192.7"/>
  <path id="シェイプ_34" data-name="シェイプ 34" class="cls-3" d="M624.556,701.2l43.3-172.132"/>
  <path id="シェイプ_4" data-name="シェイプ 4" class="cls-4" d="M435.213,610.539c0.886-12.34,2.485-28.552,5.412-28.688,3.487-.162,4.523,22.933,17.863,28.688A20.011,20.011,0,0,0,474.727,610c12.9-6.376,13.449-28.233,16.78-28.147,2.925,0.075,4.839,16.765,5.955,29.23"/>
  <path id="シェイプ_3_のコピー" data-name="シェイプ 3 のコピー" class="cls-4" d="M464.931,449.5c6.729,1.022,12.659,3.671,17.146,8.12,5.868,5.818,7.41,12.723,8.119,16.239,2.58,12.782,3.548,34.844,8.348,50.619C503,539.1,517.676,552.181,518.031,573.19a42.876,42.876,0,0,1-4.33,20.569,41.828,41.828,0,0,1-15.7,16.78"/>
  <path id="シェイプ_3" data-name="シェイプ 3" class="cls-4" d="M466.863,449.5c-6.729,1.022-12.659,3.671-17.145,8.12-5.757,5.708-7.339,12.421-8.12,16.239-2.372,11.6-2.486,35.4-9.092,53.326-1.7,4.622-6.614,13.908-10.826,21.652-4.38,8.052-7.574,13.488-8.119,21.652-0.984,14.725,7.375,28.962,20.569,41.138"/>
  <path id="シェイプ_5" data-name="シェイプ 5" class="cls-5" d="M466.863,418.641c3.93-2.433,12.384,2.745,17.5,7.876,2.4,2.407,6.579,10.75,10.284,11.07,5.549,0.478,8.811-10.4,16.239-19.487,5.658-6.919,26.53-18.571,56.295-22.193,19.875-2.419,37.218-.352,51.964,4.33,9.593,3.046,32.775,16.428,52.506,34.1,6.574,5.888,12.665,12.238,16.78,22.193,3.18,7.691,4.392,15.826,3.789,27.606-1.125,22.013-7.795,41.5-12.246,48.933-5.435,9.079-21.912,26.453-47.3,38.216-14.028,6.5-27.928,9.452-35.726,9.743a80.533,80.533,0,0,1-38.432-8.119c-5.641-2.775-14.941-9.278-23.275-17.322-5.567-5.372-13.919-15.964-21.111-26.523-6.169-9.057-10.923-17.627-12.991-24.358a89.219,89.219,0,0,1-3.789-24.914c-0.03-5.222.4-12.168-3.789-19.473A33.064,33.064,0,0,0,482.2,448.954c-3.523-2.178-8.333-2.936-11.908-6.5C463.1,435.3,462.253,421.5,466.863,418.641Z"/>
  <path id="シェイプ_5-2" data-name="シェイプ 5" class="cls-5" d="M466.224,418.5c-3.93-2.434-12.384,2.744-17.5,7.876-2.4,2.406-6.579,10.75-10.284,11.069-5.549.479-8.811-10.4-16.239-19.486-5.658-6.92-26.53-18.571-56.295-22.194-19.875-2.418-37.218-.351-51.965,4.331-9.592,3.046-32.774,16.427-52.5,34.1-6.574,5.888-12.665,12.238-16.781,22.193-3.179,7.691-4.391,15.826-3.789,27.606,1.126,22.012,7.8,41.5,12.247,48.933,5.435,9.078,21.911,26.453,47.3,38.216,14.027,6.5,27.928,9.452,35.726,9.743a80.546,80.546,0,0,0,38.432-8.12c5.64-2.774,14.941-9.277,23.275-17.321,5.567-5.372,13.919-15.964,21.111-26.524,6.169-9.057,10.923-17.627,12.991-24.358a89.207,89.207,0,0,0,3.789-24.913c0.03-5.223-.4-12.169,3.789-19.473a33.053,33.053,0,0,1,11.367-11.367c3.524-2.178,8.334-2.936,11.909-6.5C469.989,435.156,470.834,421.351,466.224,418.5Z"/>
  <path id="シェイプ_40" data-name="シェイプ 40" class="cls-6" d="M514.242,456.811c0.55-10.11,2.647-17.458,7.037-23.817,3.042-4.406,14.678-13.227,31.395-18.4,11.614-3.6,28.451-5.548,49.8-1.624a103.507,103.507,0,0,1,27.606,8.661,105.474,105.474,0,0,1,34.643,25.982,101.791,101.791,0,0,1,15.157,23.276,64.917,64.917,0,0,1-1.083,38.432c-1.709,4.856-7.953,15.683-16.239,24.9a105.249,105.249,0,0,1-26.523,21.652c-17.891,10.1-34.879,12.989-43.3,12.449-20.064-1.285-39.6-13.4-57.919-37.89C515.675,504.839,513.341,473.362,514.242,456.811Z"/>
  <path id="シェイプ_40-2" data-name="シェイプ 40" class="cls-6" d="M419.7,456.8c-0.55-10.11-2.647-17.458-7.037-23.817-3.042-4.407-14.678-13.228-31.395-18.4-11.614-3.6-28.451-5.548-49.8-1.624a103.455,103.455,0,0,0-27.607,8.661A105.466,105.466,0,0,0,269.221,447.6a101.769,101.769,0,0,0-15.157,23.276,64.917,64.917,0,0,0,1.083,38.432c1.709,4.856,7.953,15.683,16.239,24.9a105.205,105.205,0,0,0,26.523,21.652c17.891,10.105,34.879,12.99,43.3,12.45,20.064-1.285,39.6-13.4,57.919-37.891C418.268,504.83,420.6,473.354,419.7,456.8Z"/>
  <path id="シェイプ_16" data-name="シェイプ 16" class="cls-7" d="M470.98,768.319v40.056"/>
  <path id="シェイプ_17" data-name="シェイプ 17" class="cls-7" d="M480.724,773.191l-0.542,32.477"/>
  <path id="シェイプ_18" data-name="シェイプ 18" class="cls-7" d="M489.926,776.438v29.23"/>
  <path id="シェイプ_19" data-name="シェイプ 19" class="cls-7" d="M499.669,780.769v27.606"/>
  <path id="シェイプ_20" data-name="シェイプ 20" class="cls-7" d="M509.413,785.1v19.487"/>
  <path id="シェイプ_21" data-name="シェイプ 21" class="cls-7" d="M519.7,788.347v11.11"/>
  <path id="シェイプ_22" data-name="シェイプ 22" class="cls-7" d="M528.9,788.888v8.12"/>
  <path id="シェイプ_16-2" data-name="シェイプ 16" class="cls-7" d="M461.558,768.319v40.056"/>
  <path id="シェイプ_17-2" data-name="シェイプ 17" class="cls-7" d="M451.815,773.191l0.541,32.477"/>
  <path id="シェイプ_18-2" data-name="シェイプ 18" class="cls-7" d="M442.613,776.438v29.23"/>
  <path id="シェイプ_19-2" data-name="シェイプ 19" class="cls-7" d="M432.87,780.769v27.606"/>
  <path id="シェイプ_20-2" data-name="シェイプ 20" class="cls-7" d="M423.126,785.1v19.487"/>
  <path id="シェイプ_21-2" data-name="シェイプ 21" class="cls-7" d="M412.842,788.347v11.11"/>
  <path id="シェイプ_22-2" data-name="シェイプ 22" class="cls-7" d="M403.64,788.888v8.12"/>
  <path id="シェイプ_7" data-name="シェイプ 7" class="cls-8" d="M472.452,627.582l1.624,25.982"/>
  <path id="シェイプ_8" data-name="シェイプ 8" class="cls-8" d="M483.278,626.5l1.624,24.9"/>
  <path id="シェイプ_9" data-name="シェイプ 9" class="cls-8" d="M494.645,625.958l2.707,25.441"/>
  <path id="シェイプ_10" data-name="シェイプ 10" class="cls-8" d="M505.471,625.958l2.707,25.982"/>
  <path id="シェイプ_11" data-name="シェイプ 11" class="cls-8" d="M517.38,628.123l2.76,25.441"/>
  <path id="シェイプ_12" data-name="シェイプ 12" class="cls-8" d="M531.453,639.626L534.16,660.6"/>
  <path id="シェイプ_13" data-name="シェイプ 13" class="cls-8" d="M544.986,649.775l2.706,20.569"/>
  <path id="シェイプ_14" data-name="シェイプ 14" class="cls-8" d="M557.977,662.225l2.165,17.863"/>
  <path id="シェイプ_15" data-name="シェイプ 15" class="cls-8" d="M569.885,676.3l1.909,20.569"/>
  <path id="シェイプ_7-2" data-name="シェイプ 7" class="cls-8" d="M462.8,627.853l-1.623,25.982"/>
  <path id="シェイプ_8-2" data-name="シェイプ 8" class="cls-8" d="M451.978,626.77l-1.624,24.9"/>
  <path id="シェイプ_9-2" data-name="シェイプ 9" class="cls-8" d="M440.61,626.229L437.9,651.67"/>
  <path id="シェイプ_10-2" data-name="シェイプ 10" class="cls-8" d="M429.784,626.229l-2.706,25.982"/>
  <path id="シェイプ_11-2" data-name="シェイプ 11" class="cls-8" d="M417.876,628.394l-2.761,25.441"/>
  <path id="シェイプ_12-2" data-name="シェイプ 12" class="cls-8" d="M403.8,639.9L401.1,660.872"/>
  <path id="シェイプ_13-2" data-name="シェイプ 13" class="cls-8" d="M390.27,650.046l-2.707,20.569"/>
  <path id="シェイプ_14-2" data-name="シェイプ 14" class="cls-8" d="M377.279,662.5l-2.166,17.862"/>
  <path id="シェイプ_15-2" data-name="シェイプ 15" class="cls-8" d="M364.287,674.4l-1.908,20.569"/>
  <path id="シェイプ_23" data-name="シェイプ 23" class="cls-8" d="M465.151,678.413a52.9,52.9,0,0,1-15.332-4.33c-4.157-1.915-6.379-3.654-10.285-3.789-8.338-.288-13.807,6.729-22.734,14.615a98.351,98.351,0,0,1-10.285,8.119c-11.173,7.36-24.2,10.685-38.432,10.826"/>
  <path id="シェイプ_24" data-name="シェイプ 24" class="cls-8" d="M368.625,703.854a101.573,101.573,0,0,1,25.982,10.285c13.112,7.479,21.975,19.34,38.432,25.982a72.69,72.69,0,0,0,32.112,4.872"/>
  <path id="シェイプ_25" data-name="シェイプ 25" class="cls-8" d="M465.151,710.35L382.7,706.019"/>
  <path id="シェイプ_23-2" data-name="シェイプ 23" class="cls-8" d="M466.863,678.464a52.9,52.9,0,0,0,15.332-4.331c4.158-1.915,6.38-3.654,10.285-3.789,8.339-.288,13.808,6.729,22.734,14.615a98.372,98.372,0,0,0,10.285,8.12c11.173,7.359,24.2,10.685,38.432,10.826"/>
  <path id="シェイプ_24-2" data-name="シェイプ 24" class="cls-8" d="M563.39,703.905a101.506,101.506,0,0,0-25.982,10.284c-13.112,7.479-21.976,19.341-38.433,25.983a72.687,72.687,0,0,1-32.112,4.871"/>
  <path id="シェイプ_25-2" data-name="シェイプ 25" class="cls-8" d="M466.863,710.4l82.453-4.33"/>
  <path id="シェイプ_35" data-name="シェイプ 35" class="cls-8" d="M434.02,760.741a50.967,50.967,0,0,1,62.79-1.083"/>
  <path id="シェイプ_26" data-name="シェイプ 26" class="cls-8" d="M694.384,496.047c8.894,2.009,17.4,7.056,20.028,15.156,0.958,2.95.25,11.885-5.413,21.868-4.568,8.053-10.493,11.442-12.991,19.271-4.152,13.01,4.654,20.515,1.082,34.007-1.312,4.955-5.678,16.226-17.118,20.122-8.489,2.891-17.825.527-25.1-4.871"/>
  <path id="シェイプ_26-2" data-name="シェイプ 26" class="cls-8" d="M237.1,496.047c-8.9,2.009-17.4,7.056-20.028,15.156-0.959,2.95-.25,11.885,5.413,21.868,4.567,8.053,10.493,11.442,12.991,19.271,4.152,13.01-4.654,20.515-1.083,34.007,1.312,4.955,5.678,16.226,17.119,20.122,8.488,2.891,17.825.527,25.1-4.871"/>
  <path id="シェイプ_41" data-name="シェイプ 41" class="cls-8" d="M504.5,160.181a509.048,509.048,0,0,1,53.588,8.66c18.97,4.131,33.983,8.8,47.634,15.7a170.133,170.133,0,0,1,44.928,33.019"/>
</svg>
