<svg id="グループ_1" data-name="グループ 1" xmlns="http://www.w3.org/2000/svg" width="2172" height="750" viewBox="0 0 2172 750">
  <defs>
    <style>
      .cls-1 {
        fill: #9e9e9e;
      }

      .cls-1, .cls-2, .cls-3, .cls-4, .cls-5, .cls-7, .cls-8 {
        stroke: #000;
      }

      .cls-1, .cls-2, .cls-3, .cls-4, .cls-5, .cls-6, .cls-7, .cls-8 {
        stroke-linecap: round;
      }

      .cls-1, .cls-2, .cls-6, .cls-7, .cls-8 {
        stroke-width: 15px;
      }

      .cls-1, .cls-2, .cls-3, .cls-4, .cls-5, .cls-6, .cls-7, .cls-8, .cls-9 {
        fill-rule: evenodd;
      }

      .cls-3, .cls-4, .cls-8 {
        fill: none;
      }

      .cls-3 {
        stroke-width: 30px;
      }

      .cls-4, .cls-5 {
        stroke-width: 20px;
      }

      .cls-6 {
        fill: #253368;
        stroke: #253368;
      }

      .cls-7 {
        fill: #585756;
      }
    </style>
  </defs>
  <path id="楕円形_1" data-name="楕円形 1" class="cls-1" d="M614.5,13.368c199.218,0,360.717,161.91,360.717,361.635S813.714,736.637,614.5,736.637,253.778,574.728,253.778,375,415.277,13.368,614.5,13.368Z"/>
  <path id="楕円形_1-2" data-name="楕円形 1" class="cls-1" d="M614.389,62.918c170.926,0,309.489,138.915,309.489,310.276S785.315,683.469,614.389,683.469,304.9,544.554,304.9,373.194,443.463,62.918,614.389,62.918Z"/>
  <path id="シェイプ_36" data-name="シェイプ 36" class="cls-2" d="M404.668,371.988c-3.091-.8-7.182,4.62-9.871,8.847-4.334,6.81-6.933,15.5-8.089,25.544-0.322,2.793-.748,7.54-4.258,11.494-3.251,3.664-6.639,4.245-11.069,6.386a33.946,33.946,0,0,0-15.326,14.475,31.924,31.924,0,0,0-3.406,15.752c1.442,4.276,3.376,7.1,5.96,7.663,3.211,0.7,6.582-2.757,7.238-2.128,0.724,0.693-4,7.339-5.535,10.643-2.648,5.715-5.391,14.591-1.7,20.435,2.939,4.656,7.612,3.617,10.218,8.089,4.121,7.07-4.284,15.559-1.277,24.267,2.325,6.734,9.439,7.4,14.475,13.623,4.179,5.166,5.078,9.141,10.643,12.772,3.635,2.372,7.992,4.149,11.069,2.554,4.064-2.105,4.166-9.418,4.683-9.366,0.4,0.041.034,4.9,0.852,8.515a23.6,23.6,0,0,0,15.326,16.6c4.6,1.51,13.185,2.554,17.455-2.129,4.237-4.647,2.348-13.179,2.554-13.2s0.313,8.425,4.683,15.327c3.5,5.518,10.845,11.889,20.435,11.92a20.95,20.95,0,0,0,7.238-1.277c7.3-2.659,13.488-9.636,14.475-17.029,1.461-10.947-11.616-20.01-15.327-29.8-5.269-13.9,1.327-33.951-6.386-38.315-3.038-1.72-12.187.788-13.2,0.851-6.656.414-12.926-.67-15.752-1.7-6.093-2.227-13.063-6.856-17.03-14.475-2.288-4.395-4.488-11.408-2.98-18.732,0.409-1.985,3.865-8.274,2.98-13.2-0.829-4.621-4-6.882-7.237-10.643a38.465,38.465,0,0,1-7.237-12.346c-3.433-9.984-.4-17.319,0-29.376C409.44,388.959,409.5,373.229,404.668,371.988Z"/>
  <path id="シェイプ_37" data-name="シェイプ 37" class="cls-2" d="M803.5,342.945c0.758-.559,8.664,10.659,17.029,18.732,14.443,13.938,27.293,19.725,26.821,30.227-0.183,4.075-2.358,9.044-5.534,9.792-2.1.495-4.2-1.355-4.683-.852-0.824.859,3.406,7.733,11.069,14.9,4.7,4.395,8.182,6.684,11.92,11.92,3.1,4.341,6.127,10.844,5.109,17.455a45.764,45.764,0,0,1-2.554,7.238c-2.023,4.868-4.053,9.213-2.129,12.772a13.659,13.659,0,0,0,1.7,2.128c1.886,2.41,2.575,5.814,2.128,10.218,0.73,5.588,1.615,11.375,2.555,16.178,0.4,2.071,1.708,8.732-.852,10.217-1.614.937-3.975-.976-5.108,0-1.829,1.575,2.5,8.864,1.277,14.9a11.71,11.71,0,0,1-1.277,3.406c-1.657,2.972-4.876,5.834-6.812,5.108-2.147-.8-2.13-5.977-2.554-5.96-0.761.03,0.969,16.542-6.386,20.861-3.052,1.792-7.076.041-9.367,2.554-2.858,3.137.537,9.223-2.128,11.5s-8.03-2.137-11.921,0c-4.167,2.288-2.321,8.8-6.386,11.5-4.952,3.285-11.79-2.953-17.029.426-3.478,2.243-2.153,6.043-5.96,8.514-3.377,2.192-6.458.382-10.643,2.129-2.416,1.008-3.105,2.433-5.535,3.406-6.081,2.432-14.615.55-17.455-4.258-1.528-2.586-.261-4.653-2.129-7.237-2.046-2.833-6.361-3.268-8.514-4.683-2.814-1.849-4.937-4.8-6.386-8.941a264.79,264.79,0,0,0,12.612-33.242c1.983-6.509,4.451-13.975,4.843-17.42,0.841-7.4.172-14.192,2.554-14.9,0.921-.274,1.737.528,2.98,1.277,1.139,0.686,4.929,1.564,8.941,1.7a32.2,32.2,0,0,0,19.158-5.96A30.834,30.834,0,0,0,803.5,476.2a29.333,29.333,0,0,0,2.554-10.218c0.556-8.056-4.29-14.629-1.7-22.138,1.188-3.448,3.558-5.181,5.961-8.515,1.48-2.054,3.9-6.934,5.96-11.069,1.846-3.7,3.434-6.861,3.831-11.494a25.489,25.489,0,0,0-.425-7.238,12.429,12.429,0,0,0-1.7-5.109c-1.232-2.011-4.264-3.695-4.258-5.534,0.011-2.949,6.706-4.1,8.941-7.238C830.866,376.131,802.836,343.433,803.5,342.945Z"/>
  <path id="シェイプ_39" data-name="シェイプ 39" class="cls-2" d="M416.083,353.588c26.677-22.363,1.959-101.8,11.495-146.878,6.361-30.065,19-53.437,34.91-70.671,14.449-15.654,34.275-29.065,59.6-37.464,28.982-9.611,55.594-5.685,64.712-2.554a28.665,28.665,0,0,1,11.92,7.238c8.918,9.339,8.258,22.968,8.089,28.1C605.463,172.27,617.058,224.8,589.356,241.2c-9.859,5.834-25.173,1.429-45.979.851-23.194-.644-42.058,2.077-54.068,7.238-18.663,8.019-32.929,20.485-41.722,35.335-7.379,12.463-10.536,23.951-11.069,34.059-0.816,15.484,6.373,23.835,5.109,40.444a61.568,61.568,0,0,1-7.237,24.267,23.114,23.114,0,0,0-6.812.851,31.848,31.848,0,0,0-10.217,5.961,30.792,30.792,0,0,0-7.234,8.724,37.56,37.56,0,0,0-2.133,7.879c-0.155-.018,1.486-6.871-1.7-13.2a45.954,45.954,0,0,0-2.554-3.832c-4.226-6.868-3.572-16.246-.851-22.564C406.1,359.751,411.969,357.037,416.083,353.588Z"/>
  <path id="シェイプ_39-2" data-name="シェイプ 39" class="cls-2" d="M812.692,353.588c-26.677-22.363-1.959-101.8-11.5-146.878-6.36-30.065-19-53.437-34.91-70.671-14.449-15.654-34.275-29.065-59.6-37.464-28.981-9.611-55.594-5.685-64.711-2.554a28.675,28.675,0,0,0-11.921,7.238c-8.918,9.339-8.258,22.968-8.089,28.1,1.348,40.914-10.246,93.447,17.455,109.839,9.86,5.834,25.173,1.429,45.979.851,23.194-.644,42.058,2.077,54.068,7.238,18.663,8.019,32.929,20.485,41.722,35.335,7.379,12.463,10.536,23.951,11.069,34.059,0.734,13.937-9.881,26.469-5.109,40.444,2.565,7.513,7.714,12.1,5.708,18.307-0.907,2.806-4.565,5.7-3.832,7.663,0.89,2.381,9.176,2.043,13.2,3.406,2.045,0.693,6.143,3.256,9.792,5.534a20.56,20.56,0,0,1,4.257,3.406,22.658,22.658,0,0,1,2.554,3.406c1.134,1.808,1.6,3.063,2.98,3.832,1.606,0.9,3.661.807,5.961,0a75.331,75.331,0,0,1-1.025-12.772c0.068-10.4,2.881-17.129-.851-24.693C822.353,360.044,816.674,356.926,812.692,353.588Z"/>
  <path id="輪郭_顎_" data-name="輪郭(顎)" class="cls-3" d="M488.967,552.047a130.331,130.331,0,0,0,251.416,0"/>
  <path id="シェイプ_33" data-name="シェイプ 33" class="cls-3" d="M491.777,561.551l-43.425-151.56"/>
  <path id="シェイプ_34" data-name="シェイプ 34" class="cls-3" d="M738.7,558.571L772.76,423.188"/>
  <path id="シェイプ_4" data-name="シェイプ 4" class="cls-4" d="M589.782,487.268c0.7-9.706,1.955-22.457,4.257-22.564,2.742-.128,3.557,18.037,14.049,22.564a15.745,15.745,0,0,0,12.772-.426c10.145-5.015,10.578-22.2,13.2-22.138,2.3,0.059,3.806,13.186,4.683,22.989"/>
  <path id="シェイプ_3_のコピー" data-name="シェイプ 3 のコピー" class="cls-4" d="M613.156,360.606a22.37,22.37,0,0,1,19.871,19.158c2.028,10.053,2.79,27.4,6.565,39.812,3.5,11.5,15.048,21.793,15.327,38.316a33.723,33.723,0,0,1-3.406,16.178,32.911,32.911,0,0,1-12.346,13.2"/>
  <path id="シェイプ_3" data-name="シェイプ 3" class="cls-4" d="M614.675,360.606A22.37,22.37,0,0,0,594.8,379.764c-1.866,9.125-1.956,27.841-7.151,41.941-1.339,3.635-5.2,10.939-8.515,17.029-3.445,6.333-5.957,10.609-6.386,17.029-0.773,11.582,5.8,22.78,16.178,32.356"/>
  <path id="シェイプ_5" data-name="シェイプ 5" class="cls-5" d="M614.675,336.339c3.091-1.914,9.74,2.159,13.762,6.194,1.886,1.893,5.175,8.455,8.089,8.707,4.364,0.376,6.929-8.182,12.772-15.327,4.45-5.442,20.866-14.606,44.276-17.455a95.744,95.744,0,0,1,40.87,3.406c7.545,2.4,25.777,12.92,41.3,26.821,5.17,4.631,9.961,9.626,13.2,17.455,2.5,6.049,3.453,12.448,2.98,21.713-0.886,17.313-6.131,32.637-9.633,38.486-4.274,7.14-17.233,20.805-37.2,30.056-11.032,5.113-21.965,7.435-28.1,7.663a63.346,63.346,0,0,1-30.227-6.385c-4.436-2.183-11.752-7.3-18.306-13.624-4.378-4.225-10.947-12.556-16.6-20.861-4.852-7.123-8.591-13.864-10.217-19.158a70.165,70.165,0,0,1-2.981-19.594c-0.023-4.108.311-9.571-2.98-15.316a25.991,25.991,0,0,0-8.94-8.94c-2.771-1.713-6.554-2.309-9.366-5.109C611.713,349.442,611.049,338.585,614.675,336.339Z"/>
  <path id="シェイプ_5-2" data-name="シェイプ 5" class="cls-5" d="M614.172,336.225c-3.091-1.914-9.74,2.158-13.762,6.194-1.886,1.893-5.175,8.455-8.089,8.706-4.364.377-6.929-8.181-12.771-15.326-4.451-5.442-20.867-14.606-44.277-17.455a95.729,95.729,0,0,0-40.87,3.406c-7.544,2.395-25.777,12.92-41.3,26.821-5.17,4.631-9.96,9.626-13.2,17.455-2.5,6.049-3.454,12.447-2.981,21.712,0.886,17.313,6.132,32.638,9.633,38.486,4.274,7.14,17.233,20.806,37.2,30.057,11.032,5.112,21.965,7.434,28.1,7.663a63.344,63.344,0,0,0,30.227-6.386c4.437-2.182,11.752-7.3,18.307-13.623,4.377-4.225,10.947-12.556,16.6-20.861,4.852-7.124,8.591-13.864,10.218-19.158a70.2,70.2,0,0,0,2.98-19.594c0.023-4.108-.311-9.571,2.98-15.316a26,26,0,0,1,8.94-8.94c2.772-1.713,6.554-2.31,9.366-5.109C617.134,349.328,617.8,338.47,614.172,336.225Z"/>
  <path id="シェイプ_40" data-name="シェイプ 40" class="cls-6" d="M651.938,366.36c0.433-7.952,2.083-13.731,5.535-18.732,2.392-3.466,11.545-10.4,24.692-14.475,9.135-2.829,22.377-4.364,39.168-1.277a81.4,81.4,0,0,1,21.712,6.811,82.98,82.98,0,0,1,27.247,20.435,80.052,80.052,0,0,1,11.92,18.307,51.065,51.065,0,0,1-.851,30.227c-1.344,3.819-6.255,12.334-12.772,19.583a82.758,82.758,0,0,1-20.861,17.03c-14.071,7.947-27.432,10.216-34.058,9.791-15.781-1.01-31.147-10.536-45.554-29.8C653.066,404.134,651.23,379.377,651.938,366.36Z"/>
  <path id="シェイプ_40-2" data-name="シェイプ 40" class="cls-6" d="M577.582,366.353c-0.433-7.952-2.082-13.731-5.535-18.732-2.392-3.466-11.544-10.4-24.692-14.475-9.134-2.828-22.377-4.363-39.167-1.277a81.358,81.358,0,0,0-21.713,6.812,82.953,82.953,0,0,0-27.247,20.435,80.067,80.067,0,0,0-11.92,18.306,51.064,51.064,0,0,0,.851,30.227c1.345,3.82,6.255,12.335,12.772,19.584a82.77,82.77,0,0,0,20.861,17.029c14.071,7.947,27.432,10.216,34.059,9.792,15.78-1.011,31.146-10.537,45.553-29.8C576.455,404.127,578.29,379.371,577.582,366.353Z"/>
  <path id="シェイプ_16" data-name="シェイプ 16" class="cls-7" d="M617.913,611.362v31.5"/>
  <path id="シェイプ_17" data-name="シェイプ 17" class="cls-7" d="M625.576,615.193l-0.425,25.544"/>
  <path id="シェイプ_18" data-name="シェイプ 18" class="cls-7" d="M632.814,617.748v22.989"/>
  <path id="シェイプ_19" data-name="シェイプ 19" class="cls-7" d="M640.477,621.153v21.713"/>
  <path id="シェイプ_20" data-name="シェイプ 20" class="cls-7" d="M648.14,624.559v15.327"/>
  <path id="シェイプ_21" data-name="シェイプ 21" class="cls-7" d="M656.229,627.114v8.738"/>
  <path id="シェイプ_22" data-name="シェイプ 22" class="cls-7" d="M663.467,627.539v6.386"/>
  <path id="シェイプ_16-2" data-name="シェイプ 16" class="cls-7" d="M610.5,611.362v31.5"/>
  <path id="シェイプ_17-2" data-name="シェイプ 17" class="cls-7" d="M602.84,615.193l0.425,25.544"/>
  <path id="シェイプ_18-2" data-name="シェイプ 18" class="cls-7" d="M595.6,617.748v22.989"/>
  <path id="シェイプ_19-2" data-name="シェイプ 19" class="cls-7" d="M587.939,621.153v21.713"/>
  <path id="シェイプ_20-2" data-name="シェイプ 20" class="cls-7" d="M580.276,624.559v15.327"/>
  <path id="シェイプ_21-2" data-name="シェイプ 21" class="cls-7" d="M572.187,627.114v8.738"/>
  <path id="シェイプ_22-2" data-name="シェイプ 22" class="cls-7" d="M564.95,627.539v6.386"/>
  <path id="シェイプ_7" data-name="シェイプ 7" class="cls-8" d="M619.071,500.671l1.277,20.436"/>
  <path id="シェイプ_8" data-name="シェイプ 8" class="cls-8" d="M627.585,499.82l1.278,19.584"/>
  <path id="シェイプ_9" data-name="シェイプ 9" class="cls-8" d="M636.526,499.394l2.128,20.01"/>
  <path id="シェイプ_10" data-name="シェイプ 10" class="cls-8" d="M645.04,499.394l2.129,20.435"/>
  <path id="シェイプ_11" data-name="シェイプ 11" class="cls-8" d="M654.406,501.1l2.172,20.01"/>
  <path id="シェイプ_12" data-name="シェイプ 12" class="cls-8" d="M665.475,510.144l2.129,16.5"/>
  <path id="シェイプ_13" data-name="シェイプ 13" class="cls-8" d="M676.119,518.126l2.128,16.178"/>
  <path id="シェイプ_14" data-name="シェイプ 14" class="cls-8" d="M686.336,527.918l1.7,14.049"/>
  <path id="シェイプ_15" data-name="シェイプ 15" class="cls-8" d="M695.7,538.987l1.5,16.178"/>
  <path id="シェイプ_7-2" data-name="シェイプ 7" class="cls-8" d="M611.482,500.884l-1.277,20.435"/>
  <path id="シェイプ_8-2" data-name="シェイプ 8" class="cls-8" d="M602.967,500.033l-1.277,19.583"/>
  <path id="シェイプ_9-2" data-name="シェイプ 9" class="cls-8" d="M594.027,499.607L591.9,519.616"/>
  <path id="シェイプ_10-2" data-name="シェイプ 10" class="cls-8" d="M585.512,499.607l-2.128,20.435"/>
  <path id="シェイプ_11-2" data-name="シェイプ 11" class="cls-8" d="M576.146,501.31l-2.171,20.009"/>
  <path id="シェイプ_12-2" data-name="シェイプ 12" class="cls-8" d="M565.077,510.357l-2.128,16.5"/>
  <path id="シェイプ_13-2" data-name="シェイプ 13" class="cls-8" d="M554.434,518.339L552.3,534.517"/>
  <path id="シェイプ_14-2" data-name="シェイプ 14" class="cls-8" d="M544.216,528.131l-1.7,14.049"/>
  <path id="シェイプ_15-2" data-name="シェイプ 15" class="cls-8" d="M534,537.5l-1.5,16.178"/>
  <path id="シェイプ_23" data-name="シェイプ 23" class="cls-8" d="M613.329,540.65a41.615,41.615,0,0,1-12.059-3.4c-3.27-1.507-5.017-2.874-8.089-2.981-6.559-.226-10.86,5.293-17.881,11.5a77.309,77.309,0,0,1-8.089,6.386c-8.787,5.788-19.037,8.4-30.227,8.515"/>
  <path id="シェイプ_24" data-name="シェイプ 24" class="cls-8" d="M537.41,560.66a79.846,79.846,0,0,1,20.435,8.089c10.313,5.882,17.284,15.211,30.227,20.435a57.161,57.161,0,0,0,25.257,3.831"/>
  <path id="シェイプ_25" data-name="シェイプ 25" class="cls-8" d="M613.329,565.769l-64.85-3.406"/>
  <path id="シェイプ_23-2" data-name="シェイプ 23" class="cls-8" d="M614.675,540.69a41.585,41.585,0,0,0,12.059-3.406c3.27-1.506,5.017-2.874,8.089-2.98,6.558-.227,10.86,5.292,17.88,11.5a77.309,77.309,0,0,0,8.089,6.386c8.788,5.788,19.037,8.4,30.227,8.515"/>
  <path id="シェイプ_24-2" data-name="シェイプ 24" class="cls-8" d="M690.594,560.7a79.836,79.836,0,0,0-20.436,8.088c-10.312,5.882-17.283,15.212-30.227,20.436a57.154,57.154,0,0,1-25.256,3.831"/>
  <path id="シェイプ_25-2" data-name="シェイプ 25" class="cls-8" d="M614.675,565.808l64.85-3.4"/>
  <path id="シェイプ_35" data-name="シェイプ 35" class="cls-8" d="M588.844,605.4a40.086,40.086,0,0,1,49.385-.851"/>
  <path id="シェイプ_26" data-name="シェイプ 26" class="cls-8" d="M793.621,397.219c7,1.58,13.682,5.549,15.752,11.92,0.753,2.321.2,9.348-4.258,17.2-3.592,6.333-8.252,9-10.217,15.156-3.266,10.233,3.66,16.135.851,26.746-1.031,3.9-4.465,12.762-13.464,15.827-6.676,2.273-14.019.414-19.743-3.832"/>
  <path id="シェイプ_26-2" data-name="シェイプ 26" class="cls-8" d="M433.964,397.219c-7,1.58-13.683,5.549-15.752,11.92-0.754,2.321-.2,9.348,4.257,17.2,3.592,6.333,8.253,9,10.218,15.156,3.265,10.233-3.661,16.135-.852,26.746,1.032,3.9,4.466,12.762,13.464,15.827,6.676,2.273,14.019.414,19.743-3.832"/>
  <path id="シェイプ_41" data-name="シェイプ 41" class="cls-8" d="M644.275,133.059a400.2,400.2,0,0,1,42.148,6.812c14.92,3.248,26.728,6.922,37.464,12.346a133.84,133.84,0,0,1,35.336,25.969"/>
  <path id="THE_BEARD_CAFE" data-name="THE  BEARD  CAFE" class="cls-9" d="M1163.97,235.673h80.18V202.436h-16.01V113.718h16.01v11.1h48.11V80.444H1115.91v44.379h48.06v-11.1h16.06v88.718h-16.06v33.237Zm145.48,0h80.12V202.436h-16V169.162h48.12v33.274h-16.06v33.237h80.17V202.436h-16.05V113.718h16.05V80.444h-80.17v33.275h16.06v22.17h-48.12v-22.17h16V80.444h-80.12v33.275h16.01v88.718h-16.01v33.237Zm193.55,0h160.29V191.332h-48.06v11.1h-48.12V169.162h64.12V135.888h-64.12v-22.17h48.12v11.1h48.06V80.444H1503v33.275h16v88.718h-16v33.237ZM1228.14,419.584h-48.11V386.31h48.11l16.01,11.1V408.48Zm0-66.549h-48.11v-22.17h48.11l16.01,11.1ZM1115.91,452.82H1260.2l32.06-22.17V375.206l-8-5.534,7.95-5.533h0.05V319.8l-32.06-22.208H1115.91v33.274h16v88.719h-16V452.82Zm193.54,0h160.3V408.48h-48.06v11.1h-48.12V386.31h64.12V353.035h-64.12v-22.17h48.12v11.1h48.06V297.591h-160.3v33.274h16.01v88.719h-16.01V452.82Zm285.72-77.614h-24.01l12-33.237ZM1486.99,452.82h80.12V419.584h-12l4-11.1h48.11l4,11.1h-12V452.82h80.12V419.584h-16l-44.12-121.993H1519.05v33.274h16l-32.06,88.719h-16V452.82Zm321.84-99.785h-48.12v-22.17h48.12l16,11.1ZM1696.59,452.82h80.12V419.584h-16V386.31h16l24.06,33.274h-8V452.82h80.17V419.584h-24.05l-24.06-33.274h16.05l32.06-22.171V319.8l-32.06-22.208H1696.59v33.274h16.01v88.719h-16.01V452.82Zm289.72-33.236h-32.06V330.865h32.06l16.06,11.1V408.48Zm-96.17,33.236h128.23l32.06-22.17V319.8l-32.06-22.208H1890.14v33.274h16v88.719h-16V452.82ZM1147.97,669.968h96.18L1276.2,647.8V614.561h-48.06v11.066l-16.05,11.1h-32.06l-16.06-11.1V559.116l16.06-11.1h32.06l16.05,11.1v11.067h48.06V536.946l-32.05-22.208h-96.18l-32.06,22.208V647.8Zm253.65-77.615h-24l12-33.237Zm-108.17,77.615h80.12V636.731h-12.01l4-11.1h48.12l4,11.1h-12v33.237h80.12V636.731h-16l-44.12-121.993H1325.51v33.274h16l-32.06,88.719h-16v33.237Zm209.6,0h80.12V636.731h-16V603.457h64.12V570.183h-64.12V548.012h48.11v11.1h48.06V514.738H1503.05v33.274h16v88.719h-16v33.237Zm177.54,0h160.29V625.627h-48.06v11.1H1744.7V603.457h64.12V570.183H1744.7V548.012h48.12v11.1h48.06V514.738H1680.59v33.274h16v88.719h-16v33.237Z"/>
</svg>
